<?xml version="1.0" standalone="no"?>
<!DOCTYPE svg PUBLIC "-//W3C//DTD SVG 20010904//EN"
    "http://www.w3.org/TR/2001/REC-SVG-20010904/DTD/svg10.dtd">
<svg version="1.0" xmlns="http://www.w3.org/2000/svg"
     width="3172.000000pt" height="566.000000pt" viewBox="0 0 3172.000000 566.000000"
     preserveAspectRatio="xMidYMid meet">

    <g transform="translate(0.000000,566.000000) scale(0.100000,-0.100000)"
       fill="#000000" stroke="none">
        <path fill="#1f89c7" d="M1505 5525 c-85 -16 -202 -58 -270 -96 -172 -98 -282 -240 -355 -458
-54 -160 -62 -228 -58 -501 6 -545 3 -700 -15 -795 -37 -186 -106 -340 -193
-435 -68 -72 -134 -108 -220 -119 -80 -9 -97 -25 -115 -106 -10 -43 -10 -67 0
-109 16 -70 41 -92 113 -99 31 -3 76 -14 100 -25 52 -23 140 -107 186 -176 43
-67 97 -211 124 -331 23 -108 28 -277 19 -800 -4 -262 8 -360 60 -516 68 -200
167 -337 312 -432 138 -91 250 -125 433 -134 103 -5 126 -3 158 12 48 23 80
87 71 139 -15 77 -64 123 -165 152 -141 42 -240 117 -294 224 -64 129 -62 73
-40 940 9 348 -15 519 -96 697 -81 175 -180 277 -360 368 -27 14 -50 32 -50
40 0 8 35 32 78 54 226 118 363 324 413 621 16 91 17 420 5 866 -10 352 -7
379 45 491 21 44 48 79 95 122 66 60 76 65 264 134 129 48 140 230 17 276 -37
14 -175 12 -262 -4z"/>

        <path fill="#89c71f" d="M2323 2231 c-107 -40 -186 -112 -234 -216 -93 -200 -33 -437 141
-553 167 -112 392 -91 533 50 206 206 148 573 -111 700 -60 30 -75 33 -172 35
-83 2 -116 -1 -157 -16z"/>
        <path fill="#89c71f" d="M3723 2231 c-107 -40 -186 -112 -234 -216 -93 -200 -33 -437 141
-553 167 -112 392 -91 533 50 206 206 148 573 -111 700 -60 30 -75 33 -172 35
-83 2 -116 -1 -157 -16z"/>
        <path fill="#89c71f" d="M5123 2231 c-107 -40 -186 -112 -234 -216 -93 -200 -33 -437 141
-553 167 -112 392 -91 533 50 206 206 148 573 -111 700 -60 30 -75 33 -172 35
-83 2 -116 -1 -157 -16z"/>


        <path fill="#89c71f" d="M9440 10495 c-8 -2 -49 -9 -90 -15 -293 -48 -569 -233 -739 -495
-192 -296 -243 -729 -124 -1058 131 -367 414 -630 789 -734 93 -26 111 -28
294 -28 182 0 201 2 295 28 310 86 577 303 717 582 90 178 122 320 122 535 1
171 -12 260 -55 391 -83 256 -250 480 -461 619 -179 118 -351 170 -583 175
-82 2 -157 2 -165 0z"/>
        <path fill="#1f89c7" d="M29905 5517 c-22 -12 -45 -34 -52 -47 -30 -59 -3 -158 54 -198 16
-11 58 -29 95 -40 206 -64 310 -177 345 -378 14 -81 13 -126 -2 -489 -22 -540
-9 -729 62 -930 70 -196 205 -343 400 -438 23 -12 43 -27 43 -34 0 -7 -23 -25
-52 -39 -164 -83 -259 -173 -341 -325 -114 -208 -137 -423 -112 -1036 19 -457
16 -512 -41 -629 -24 -51 -50 -87 -90 -123 -67 -61 -91 -74 -203 -112 -106
-36 -126 -49 -152 -101 -16 -31 -20 -54 -17 -90 9 -88 59 -118 195 -118 169 0
353 57 489 151 159 109 281 322 329 573 25 126 29 296 16 611 -11 256 -11 304
3 415 22 167 49 265 107 388 81 173 192 267 329 279 48 5 65 11 80 30 28 36
41 113 30 175 -17 90 -27 98 -141 113 -60 8 -152 62 -207 123 -94 103 -166
300 -197 537 -14 105 -15 157 -4 415 17 428 6 585 -57 766 -110 321 -316 503
-630 558 -132 24 -230 21 -279 -7z"/>
        <path fill="#1f89c7" d="M6895 5248 c-141 -53 -235 -184 -235 -327 0 -82 11 -118 58 -192 62
-97 161 -149 286 -149 179 0 324 142 334 328 4 66 1 78 -31 145 -64 135 -159
200 -302 204 -44 1 -93 -3 -110 -9z"/>
        <path fill="#1f89c7" d="M18054 4896 c-35 -16 -78 -72 -157 -208 -59 -100 -150 -220 -208
-274 -66 -61 -186 -141 -325 -218 -165 -90 -186 -117 -152 -191 24 -52 54 -59
276 -63 l202 -4 0 -882 c0 -872 3 -963 35 -1118 54 -262 233 -445 503 -514
132 -34 359 -44 481 -20 97 19 235 72 322 123 81 49 191 152 261 247 72 96 84
119 103 192 19 72 7 122 -36 158 -25 21 -41 26 -88 26 -97 0 -123 -26 -254
-250 -63 -109 -145 -193 -228 -235 -44 -23 -71 -29 -150 -33 -80 -4 -103 -1
-140 15 -112 50 -185 156 -218 321 -7 36 -11 364 -11 1012 l0 960 323 0 c405
0 441 8 484 108 20 48 -6 99 -67 130 -43 22 -51 22 -392 22 l-348 0 0 183 c-1
232 -14 413 -34 460 -25 60 -109 84 -182 53z"/>
        <path fill="#1f89c7" d="M20165 4891 c-43 -26 -66 -55 -122 -151 -88 -150 -120 -195 -196
-276 -92 -97 -191 -169 -367 -266 -151 -83 -176 -111 -159 -171 20 -73 70 -87
302 -87 l177 0 0 -807 c0 -775 7 -1034 31 -1153 33 -170 85 -276 184 -376 149
-151 380 -224 675 -211 180 7 334 55 476 148 180 118 353 351 354 477 0 84
-50 134 -135 134 -86 0 -135 -47 -234 -221 -75 -134 -160 -225 -246 -267 -55
-26 -69 -29 -165 -29 -84 0 -113 4 -145 20 -86 43 -153 136 -192 270 -16 55
-18 140 -21 1037 l-3 977 348 3 c341 3 349 3 391 26 46 24 82 73 82 110 0 36
-28 80 -63 99 -29 16 -70 18 -393 21 l-362 3 -4 297 c-5 338 -10 365 -74 395
-46 22 -102 21 -139 -2z"/>
        <path fill="#1f89c7" d="M6849 4191 c-52 -16 -72 -34 -97 -89 l-27 -57 -6 -1430 c-6 -1528 -4
-1473 -55 -1699 -22 -99 -74 -207 -130 -267 -27 -28 -112 -93 -189 -144 -159
-106 -186 -137 -193 -220 -4 -49 -2 -57 25 -84 49 -49 119 -61 211 -37 105 28
283 158 382 279 304 371 481 855 520 1422 13 195 13 1956 0 2050 -14 101 -62
191 -121 228 -25 15 -70 34 -100 42 -57 16 -177 18 -220 6z"/>
        <path fill="#1f89c7" d="M8860 4188 c-210 -35 -311 -64 -432 -124 -111 -54 -178 -103 -274
-198 -181 -180 -276 -379 -340 -711 -26 -131 -26 -587 0 -730 53 -300 150
-511 315 -687 135 -144 295 -237 505 -292 307 -81 656 -73 946 21 302 99 529
315 652 622 130 323 155 822 62 1211 -14 58 -30 116 -36 130 -6 14 -14 34 -18
45 -47 128 -148 291 -239 383 -225 228 -548 344 -950 341 -75 -1 -161 -6 -191
-11z m379 -224 c113 -28 180 -65 248 -136 79 -83 115 -141 157 -252 69 -181
94 -325 104 -601 29 -751 -90 -1163 -377 -1310 -57 -29 -121 -43 -241 -55
-287 -27 -483 76 -603 315 -72 144 -100 269 -137 601 -13 118 -13 399 1 539
36 373 120 615 264 761 84 85 148 118 290 148 54 11 234 5 294 -10z"/>
        <path fill="#1f89c7" d="M10638 4190 c-82 -25 -119 -91 -99 -178 29 -129 751 -2507 768 -2530
11 -15 45 -40 76 -56 48 -25 72 -30 157 -34 167 -8 292 28 335 98 11 19 156
430 320 913 271 794 301 877 321 877 16 0 24 -9 32 -37 6 -21 112 -409 237
-863 124 -454 233 -842 242 -862 35 -83 112 -120 263 -126 172 -7 293 33 332
109 10 19 211 587 448 1262 383 1094 430 1235 431 1292 1 76 -16 107 -72 129
-22 9 -67 16 -102 16 -107 0 -195 -68 -249 -190 -45 -101 -72 -195 -177 -610
-140 -555 -135 -537 -309 -1042 -115 -336 -151 -428 -164 -428 -9 0 -19 8 -22
18 -3 9 -115 438 -250 952 -270 1030 -282 1075 -333 1173 -50 96 -103 127
-212 127 -67 0 -113 -12 -156 -41 -73 -51 -122 -173 -244 -619 -165 -601 -184
-666 -348 -1147 -128 -375 -161 -463 -175 -463 -10 0 -18 1 -18 3 0 1 -110
439 -245 972 -266 1053 -270 1069 -360 1159 -57 56 -134 101 -210 121 -63 16
-172 19 -217 5z"/>
        <path fill="#1f89c7" d="M15800 4189 c-142 -23 -178 -29 -215 -38 -211 -49 -412 -164 -551
-313 -160 -174 -257 -390 -316 -708 -30 -160 -32 -608 -4 -740 24 -116 56
-231 74 -275 176 -420 483 -643 982 -710 370 -49 751 25 996 195 149 104 276
232 316 318 25 56 33 130 16 162 -19 35 -75 70 -112 70 -63 -1 -109 -33 -198
-141 -199 -242 -340 -334 -573 -375 -100 -17 -167 -17 -275 1 -148 24 -239 61
-340 141 -87 68 -201 235 -233 340 -43 144 -61 232 -77 369 -11 100 -13 274
-4 299 6 14 81 16 748 16 746 0 867 5 947 37 22 8 57 35 79 60 53 60 65 120
56 277 -21 348 -154 630 -379 799 -150 112 -306 176 -512 208 -128 20 -328 23
-425 8z m319 -229 c144 -46 269 -158 342 -308 64 -131 86 -219 96 -379 8 -127
-8 -180 -65 -215 l-37 -23 -574 -3 -573 -3 7 88 c4 48 15 131 25 183 47 246
114 396 231 516 71 74 119 106 204 137 93 34 247 37 344 7z"/>
        <path fill="#1f89c7" d="M23130 4185 c-25 -8 -52 -21 -61 -28 -27 -21 -49 -73 -59 -144 -13
-90 -13 -2322 0 -2422 13 -97 42 -149 100 -179 41 -22 54 -23 157 -19 136 5
204 32 247 97 60 90 59 78 66 990 6 813 6 836 27 890 56 150 159 281 285 366
111 74 195 98 322 92 117 -6 171 -26 237 -85 71 -64 101 -126 131 -275 7 -34
13 -383 17 -993 l6 -940 25 -50 c39 -77 69 -90 215 -90 112 0 124 2 178 28 39
20 66 42 84 68 57 87 57 74 63 954 5 803 5 811 27 875 75 220 267 428 453 490
55 19 81 21 165 18 90 -4 107 -8 163 -38 74 -39 116 -83 150 -159 55 -121 55
-106 62 -1066 7 -963 4 -926 60 -1035 50 -96 162 -146 309 -138 100 6 137 26
171 93 l25 50 3 970 c3 1057 1 1089 -54 1253 -103 308 -340 456 -702 439 -322
-15 -536 -145 -760 -460 -46 -64 -86 -117 -90 -117 -4 0 -17 41 -29 90 -52
216 -173 364 -354 435 -111 44 -210 58 -364 52 -334 -13 -551 -130 -743 -402
-35 -50 -68 -97 -72 -105 -15 -27 -21 -5 -31 118 -15 194 -71 307 -176 358
-68 34 -183 42 -253 19z"/>
        <path fill="#1f89c7" d="M28379 4196 c-2 -2 -47 -9 -99 -15 -98 -12 -130 -19 -240 -53 -162
-49 -312 -136 -443 -257 -56 -52 -168 -213 -212 -305 -112 -236 -160 -487
-160 -831 0 -220 8 -286 52 -465 140 -568 593 -882 1267 -879 187 0 387 36
542 96 68 27 202 99 237 129 16 13 32 24 37 24 15 0 206 193 234 236 38 58 58
144 44 186 -6 18 -15 39 -21 45 -15 20 -68 43 -99 43 -44 0 -114 -38 -144 -78
-79 -105 -193 -230 -255 -278 -60 -46 -193 -118 -252 -135 -52 -16 -198 -39
-248 -39 -71 0 -229 26 -294 49 -154 54 -295 183 -376 343 -84 167 -121 347
-123 603 l-1 180 795 6 c590 4 807 9 843 18 73 19 137 68 166 126 23 46 25 60
24 170 -3 322 -117 613 -309 796 -204 192 -483 289 -837 289 -68 0 -126 -2
-128 -4z m262 -232 c103 -29 179 -79 260 -170 104 -117 167 -280 189 -489 19
-175 -11 -243 -114 -265 -34 -8 -227 -10 -591 -8 l-540 3 3 75 c4 84 42 286
73 382 76 242 228 413 419 473 62 19 233 19 301 -1z"/>
        <path fill="#1f89c7" d="M21923 2231 c-107 -40 -186 -112 -234 -216 -93 -200 -33 -437 141
-553 167 -112 392 -91 533 50 206 206 148 573 -111 700 -60 30 -75 33 -172 35
-83 2 -116 -1 -157 -16z"/>
    </g>
</svg>
