<?xml version="1.0" standalone="no"?>
<!DOCTYPE svg PUBLIC "-//W3C//DTD SVG 20010904//EN"
 "http://www.w3.org/TR/2001/REC-SVG-20010904/DTD/svg10.dtd">
<svg version="1.0" xmlns="http://www.w3.org/2000/svg"
 width="1500pt" height="1500pt" viewBox="0 0 1500 1500"
 preserveAspectRatio="xMidYMid meet">
<g transform="translate(0,1500) scale(0.1,-0.1)"
fill="#000000" stroke="none">
<path fill="#1f89c7" d="M4046 14459 c-488 -28 -888 -168 -1246 -435 -106 -79 -263 -231 -344
-333 -205 -258 -364 -601 -461 -996 -105 -426 -121 -812 -74 -1790 29 -609 27
-883 -11 -1180 -83 -654 -281 -1136 -598 -1458 -164 -167 -324 -241 -578 -266
-56 -5 -115 -16 -132 -25 -63 -32 -118 -126 -142 -241 -16 -77 -16 -243 0
-320 17 -83 63 -177 105 -214 41 -35 80 -47 194 -56 231 -18 422 -112 576
-283 269 -297 445 -691 540 -1205 75 -414 81 -629 40 -1547 -22 -502 -23 -947
-2 -1156 59 -582 240 -1081 531 -1469 73 -97 255 -282 351 -356 262 -204 598
-347 964 -409 160 -27 479 -43 590 -30 199 24 325 138 350 316 21 146 -21 267
-128 375 -81 81 -133 108 -293 154 -151 42 -210 65 -313 117 -375 191 -575
492 -636 954 -13 103 -8 584 10 964 60 1253 60 1610 1 2095 -56 461 -171 810
-366 1112 -136 210 -362 436 -566 566 -75 48 -246 137 -330 173 -63 26 -68 31
-68 59 0 28 5 33 68 59 157 67 364 190 497 296 84 67 239 229 316 330 254 333
402 748 459 1293 26 253 43 669 36 877 -12 321 -36 912 -47 1145 -18 395 -23
866 -10 968 61 463 261 764 636 955 103 52 162 75 313 117 160 46 212 73 293
154 107 108 149 229 128 375 -25 178 -150 291 -349 316 -92 11 -98 11 -304 -1z"/>
<path fill="#1f89c7" d="M10750 14460 c-171 -21 -289 -114 -337 -265 -17 -53 -16 -167 1 -233
31 -115 122 -223 239 -283 31 -16 110 -45 175 -63 419 -119 675 -318 827 -639
80 -169 118 -339 130 -592 7 -125 2 -270 -45 -1411 -11 -259 -20 -592 -20
-740 0 -841 129 -1418 414 -1858 146 -225 364 -438 599 -584 67 -42 273 -148
335 -172 27 -10 32 -18 32 -44 0 -31 -4 -34 -77 -66 -382 -166 -665 -404 -893
-750 -197 -300 -319 -681 -374 -1170 -42 -368 -46 -693 -16 -1410 10 -261 27
-655 36 -875 26 -650 3 -870 -120 -1131 -153 -324 -407 -520 -828 -640 -139
-40 -215 -76 -283 -137 -185 -165 -197 -459 -24 -610 103 -90 225 -114 507
-97 526 31 918 166 1287 444 509 382 821 1069 886 1955 12 162 7 617 -11 1081
-19 470 -23 919 -11 1060 82 935 421 1640 889 1847 80 35 184 60 283 68 131
10 164 21 212 75 139 154 139 556 0 710 -48 54 -81 65 -212 75 -342 26 -629
249 -845 655 -167 315 -283 761 -327 1260 -13 149 -8 588 13 1085 19 463 17
1060 -5 1230 -49 386 -121 667 -245 945 -131 296 -267 495 -479 700 -157 154
-307 258 -518 360 -279 135 -546 200 -910 220 -198 11 -193 11 -285 0z"/>
<path fill="#89c71f" d="M5350 10494 c-14 -2 -52 -9 -85 -15 -229 -39 -485 -184 -632 -357
-168 -198 -258 -418 -284 -693 -30 -317 63 -621 267 -870 138 -169 353 -305
581 -367 90 -24 114 -26 293 -26 183 -1 201 1 294 27 192 53 352 145 498 285
214 206 328 466 344 782 22 427 -177 835 -516 1058 -182 120 -353 172 -585
177 -82 2 -161 2 -175 -1z"/>
<path fill="#89c71f" d="M9440 10495 c-8 -2 -49 -9 -90 -15 -293 -48 -569 -233 -739 -495
-192 -296 -243 -729 -124 -1058 131 -367 414 -630 789 -734 93 -26 111 -28
294 -28 182 0 201 2 295 28 310 86 577 303 717 582 90 178 122 320 122 535 1
171 -12 260 -55 391 -83 256 -250 480 -461 619 -179 118 -351 170 -583 175
-82 2 -157 2 -165 0z"/>
</g>
</svg>
